<?xml version="1.0" encoding="UTF-8"?>
<svg id="Capa_2" data-name="Capa 2" xmlns="http://www.w3.org/2000/svg" viewBox="0 0 1464.05 753.91">
  <defs>
    <style>
      .cls-1, .cls-2 {
        stroke-width: 0px;
      }

      .cls-2 {
        fill: #ff4d4d;
      }
    </style>
  </defs>
  <g id="Capa_1-2" data-name="Capa 1">
    <rect class="cls-2" x="0" y="0" width="1464.05" height="753.91" rx="89.03" ry="89.03"/>
    <path class="cls-1" d="m1303.84,288.75c-14.17-27.35-34.98-53.56-61.88-77.91-49.18-44.53-117.92-82.1-199.56-109.19l.17-.14-16.83-5.18c-13.69-4.21-27.68-8.13-41.93-11.73-2.85-.72-5.71-1.43-8.58-2.13-1.44-.35-2.87-.69-4.31-1.03-27.36-6.49-55.61-11.86-84.49-16.05-24.17-3.5-48.77-6.17-73.64-7.99-26.68-1.96-53.67-2.94-80.78-2.94s-51.69.9-77.21,2.69c-11.16.78-22.28,1.73-33.32,2.85-3.16.32-6.3.65-9.45,1-3.14.35-6.28.71-9.41,1.08s-6.26.76-9.38,1.17c-4.68.6-9.34,1.24-13.99,1.9-48.13,6.89-94.57,17.08-138.04,30.28,0,0-.01,0-.02,0l-16.85,5.12.17.14c-82.43,26.99-151.86,64.62-201.59,109.35-27.16,24.44-48.19,50.76-62.51,78.24-14.94,28.67-22.51,58.5-22.51,88.67s7.3,58.89,21.68,87.07c13.8,27.02,34.09,52.96,60.31,77.09,47.99,44.17,115.27,81.68,195.31,108.99l-.15.13,15.97,5.08s.01,0,.02,0c17.03,5.42,34.54,10.36,52.45,14.82,2.58.64,5.18,1.28,7.78,1.9,1.63.39,3.27.78,4.91,1.16,25.09,5.86,50.91,10.78,77.28,14.71,22.03,3.28,44.43,5.87,67.06,7.76.82.07,1.64.14,2.47.2,2.69.22,5.38.43,8.07.62,16.8,1.23,33.72,2.09,50.72,2.55,10.05.27,20.12.41,30.21.41s20.39-.14,30.54-.42c3.39-.09,6.77-.2,10.15-.32,1.69-.06,3.38-.13,5.07-.2,35.44-1.46,70.48-4.61,104.7-9.43,3.26-.46,6.51-.93,9.75-1.42,1.57-.24,3.13-.48,4.69-.72.52-.08,1.03-.16,1.55-.24,1.04-.16,2.09-.33,3.13-.49.6-.1,1.21-.2,1.81-.3.95-.15,1.9-.31,2.86-.47.66-.11,1.31-.22,1.97-.33.89-.15,1.79-.3,2.68-.45.7-.12,1.41-.24,2.11-.36.84-.15,1.69-.29,2.53-.44.72-.13,1.44-.26,2.16-.38.82-.15,1.65-.29,2.47-.44.73-.13,1.46-.27,2.18-.4.81-.15,1.62-.29,2.43-.44.74-.14,1.47-.28,2.21-.41.8-.15,1.59-.3,2.39-.45.74-.14,1.48-.28,2.21-.43.79-.15,1.58-.3,2.37-.46.75-.15,1.49-.29,2.24-.44.78-.15,1.55-.31,2.33-.46.76-.15,1.52-.31,2.28-.46.76-.15,1.52-.31,2.28-.46.76-.16,1.52-.31,2.28-.47.76-.16,1.52-.31,2.27-.47.76-.16,1.52-.32,2.27-.48.75-.16,1.5-.32,2.25-.48.76-.16,1.52-.33,2.27-.49.75-.16,1.5-.33,2.24-.49.76-.17,1.51-.34,2.27-.51.74-.17,1.49-.33,2.23-.5.76-.17,1.51-.34,2.27-.52.74-.17,1.48-.34,2.22-.51.76-.17,1.51-.35,2.26-.53.74-.17,1.47-.34,2.21-.52.75-.18,1.5-.36,2.25-.54.73-.18,1.47-.35,2.2-.53.75-.18,1.5-.36,2.24-.55.73-.18,1.46-.36,2.19-.54.75-.19,1.5-.37,2.25-.56.72-.18,1.45-.36,2.17-.54.75-.19,1.5-.38,2.25-.57.72-.18,1.44-.37,2.16-.55.75-.19,1.49-.39,2.24-.58.72-.19,1.43-.37,2.15-.56.75-.2,1.49-.4,2.23-.59.71-.19,1.43-.38,2.14-.57.74-.2,1.48-.4,2.23-.6.71-.19,1.42-.39,2.13-.58.74-.2,1.47-.41,2.21-.61.71-.2,1.42-.39,2.13-.59.73-.2,1.46-.41,2.18-.62.71-.2,1.43-.4,2.14-.61.73-.21,1.45-.42,2.17-.63.71-.2,1.42-.41,2.13-.62.72-.21,1.45-.42,2.17-.64.71-.21,1.41-.42,2.12-.63.72-.21,1.44-.43,2.15-.64.7-.21,1.41-.42,2.11-.64.71-.22,1.43-.44,2.14-.65.7-.22,1.4-.43,2.1-.65.71-.22,1.42-.44,2.13-.66.7-.22,1.4-.44,2.1-.66.71-.22,1.41-.45,2.12-.67.46-.15.93-.29,1.39-.44l1.43-.46c.09-.03.17-.06.26-.08l15.7-5.06-.15-.13c79.25-27.4,145.83-64.84,193.28-108.8,25.95-24.04,46.03-49.87,59.68-76.76,14.23-28.03,21.45-57.17,21.45-86.6s-7.49-59.68-22.27-88.21Zm-16.86,8.73c11.79,22.77,18.45,46.27,19.86,69.98h-281.16c-1.05-39.88-8.72-78.58-22.85-115.18-7.33-19-16.41-37.33-26.99-54.48-7.22-11.71-15.19-22.95-23.78-33.56,25.71-13.73,50.18-29.92,72.93-48.28,84.19,26.5,154.73,64.11,204.23,108.93,25.21,22.83,44.64,47.24,57.76,72.57Zm-345.52,275c-30.36-15.21-62.37-27.05-95.27-35.22-34.08-8.47-69.25-13.04-104.67-13.6v-137.2h265.18c-1.04,37.52-8.28,73.93-21.57,108.34-6.92,17.92-15.47,35.19-25.44,51.35-5.62,9.12-11.72,17.92-18.23,26.34Zm-370.83,95.8c-.99-.15-1.98-.31-2.98-.46-.54-.08-1.07-.17-1.61-.26-.9-.14-1.8-.29-2.7-.44-.57-.09-1.13-.19-1.7-.28-.88-.14-1.75-.29-2.62-.44-.57-.1-1.14-.19-1.7-.29-.89-.15-1.78-.3-2.67-.46-.54-.09-1.08-.19-1.62-.28-.96-.17-1.91-.34-2.87-.5-.47-.08-.93-.16-1.4-.25-1.39-.25-2.77-.5-4.16-.75-.04,0-.08-.01-.12-.02-1.4-.26-2.79-.51-4.18-.78-.47-.09-.94-.18-1.41-.27-.94-.18-1.87-.35-2.81-.53-.56-.11-1.11-.22-1.67-.32-.85-.17-1.7-.33-2.55-.5-.58-.12-1.17-.23-1.75-.35-.82-.16-1.65-.33-2.47-.5-.59-.12-1.17-.24-1.76-.36-.83-.17-1.67-.34-2.5-.51-.57-.12-1.13-.23-1.7-.35-.89-.19-1.78-.37-2.67-.56-.5-.11-1-.21-1.5-.32-1.22-.26-2.44-.52-3.66-.79-.29-.06-.58-.13-.87-.19-1.23-.27-2.47-.54-3.7-.82-.51-.11-1.02-.23-1.53-.35-.86-.19-1.73-.39-2.59-.59-.58-.13-1.15-.26-1.73-.4-.8-.18-1.59-.37-2.39-.55-.6-.14-1.19-.28-1.78-.42-.78-.18-1.56-.37-2.34-.55-.6-.14-1.19-.28-1.79-.43-.79-.19-1.57-.38-2.36-.57-.58-.14-1.15-.28-1.73-.42-.84-.21-1.68-.41-2.52-.62-.51-.13-1.03-.25-1.54-.38-1.14-.29-2.28-.57-3.42-.86-.37-.09-.73-.19-1.1-.28-1.16-.3-2.33-.6-3.49-.9-.51-.13-1.03-.27-1.54-.4-.83-.22-1.66-.43-2.48-.65-.57-.15-1.14-.3-1.7-.46-.77-.21-1.54-.41-2.31-.62-.58-.16-1.16-.32-1.75-.48-.76-.21-1.51-.41-2.27-.62-.58-.16-1.16-.32-1.74-.48-.77-.21-1.54-.43-2.3-.65-.56-.16-1.11-.31-1.67-.47-.83-.23-1.65-.47-2.47-.71-.49-.14-.99-.28-1.48-.43-1.13-.33-2.26-.66-3.38-.99-.17-.05-.35-.1-.53-.15,20.51-16.7,42.49-31.57,65.58-44.35,1.66,1.92,3.35,3.81,5.05,5.68,13.28,14.55,27.89,27.76,43.44,39.27,15.71,11.63,32.52,21.63,49.95,29.7,1.74.8,3.48,1.58,5.22,2.35-15.59-1.59-31.03-3.53-46.3-5.8-1.44-.22-2.88-.43-4.32-.65-.45-.07-.89-.14-1.34-.21ZM465.87,108.04c.47-.13.95-.26,1.42-.39.93-.26,1.87-.51,2.81-.77.34-.09.68-.19,1.03-.28,1.27-.34,2.54-.69,3.82-1.02.33-.09.67-.18,1-.26.95-.25,1.9-.5,2.86-.75.48-.12.96-.25,1.44-.37.81-.21,1.63-.42,2.44-.63.52-.13,1.04-.27,1.56-.4.79-.2,1.57-.4,2.36-.6.53-.13,1.05-.26,1.58-.4.8-.2,1.6-.4,2.4-.59.51-.13,1.02-.25,1.53-.38.87-.21,1.75-.42,2.62-.63.43-.1.86-.21,1.3-.31,1.3-.31,2.6-.62,3.9-.92.16-.04.32-.07.47-.11,1.15-.27,2.31-.54,3.46-.8.46-.11.92-.21,1.38-.32.86-.2,1.72-.39,2.58-.58.52-.12,1.05-.23,1.57-.35.81-.18,1.61-.36,2.42-.54.54-.12,1.08-.24,1.62-.36.8-.18,1.61-.35,2.41-.52.53-.11,1.06-.23,1.6-.34.85-.18,1.71-.36,2.56-.54.48-.1.96-.2,1.44-.3,1.07-.22,2.14-.44,3.21-.67.26-.05.53-.11.79-.16,1.33-.27,2.66-.54,3.99-.81.41-.08.82-.16,1.23-.24.93-.19,1.87-.37,2.8-.55.51-.1,1.03-.2,1.54-.3.84-.16,1.68-.32,2.52-.48.54-.1,1.09-.21,1.63-.31.82-.16,1.65-.31,2.47-.46.54-.1,1.09-.2,1.63-.3.85-.16,1.7-.31,2.55-.47.51-.09,1.02-.19,1.54-.28.97-.17,1.94-.35,2.92-.52.39-.07.77-.14,1.16-.21,1.35-.24,2.71-.47,4.07-.71.31-.05.62-.1.92-.16,1.06-.18,2.11-.36,3.17-.53.5-.08,1-.16,1.5-.25.87-.14,1.75-.29,2.62-.43.55-.09,1.1-.18,1.64-.26.83-.13,1.67-.27,2.51-.4.56-.09,1.11-.18,1.67-.26.84-.13,1.69-.26,2.54-.39.54-.08,1.08-.17,1.62-.25.91-.14,1.82-.27,2.73-.41.47-.07.94-.14,1.41-.21,1.32-.19,2.64-.39,3.96-.58.06,0,.11-.02.17-.02,11.85-1.7,23.8-3.19,35.84-4.47,1.6-.17,3.2-.34,4.8-.5-1.75.77-3.49,1.55-5.23,2.35-17.43,8.08-34.23,18.07-49.95,29.7-14.76,10.93-28.68,23.39-41.41,37.08-21.6-11.45-42.3-24.72-61.78-39.6.55-.15,1.1-.31,1.64-.46Zm417.84-23.86s.06,0,.09.01c1.36.2,2.73.4,4.09.6.47.07.93.14,1.4.21.93.14,1.86.28,2.78.42.55.08,1.09.17,1.64.25.85.13,1.71.27,2.56.4.56.09,1.13.18,1.69.27.85.14,1.69.27,2.54.41.55.09,1.1.18,1.65.27.88.15,1.77.29,2.65.44.5.08,1.01.17,1.51.25,1.06.18,2.11.36,3.16.54.32.06.65.11.97.17,1.37.24,2.75.48,4.12.72.36.06.72.13,1.08.19,1.01.18,2.03.36,3.04.55.5.09,1,.18,1.5.28.87.16,1.75.32,2.62.49.54.1,1.07.2,1.61.3.85.16,1.69.32,2.54.48.54.1,1.07.21,1.61.31.86.17,1.73.34,2.59.5.5.1,1.01.2,1.51.3.95.19,1.9.38,2.86.57.41.08.81.16,1.22.25,1.36.28,2.72.55,4.07.83.08.02.16.03.24.05,1.27.26,2.54.53,3.8.8.43.09.86.18,1.29.28.92.2,1.84.39,2.75.59.5.11,1,.22,1.5.33.85.19,1.7.37,2.55.56.52.11,1.04.23,1.56.35.84.19,1.69.38,2.53.57.5.11,1.01.23,1.51.34.89.2,1.78.41,2.67.61.45.1.89.21,1.34.31,1.11.26,2.22.52,3.33.78.22.05.44.1.66.15,1.33.32,2.66.64,3.99.96.34.08.68.17,1.02.25.98.24,1.96.48,2.94.72.47.12.94.23,1.41.35.85.21,1.7.42,2.55.64.5.13,1.01.25,1.51.38.82.21,1.65.42,2.47.63.5.13,1.01.26,1.51.39.84.22,1.67.44,2.51.65.47.12.95.25,1.42.37.93.25,1.87.5,2.8.75.37.1.73.2,1.1.29,1.3.35,2.6.7,3.89,1.06.17.05.33.09.5.14,1.12.31,2.24.62,3.36.93.43.12.86.24,1.29.36.63.18,1.25.35,1.88.53-19.97,15.16-41.2,28.63-63.37,40.19-13.09-14.24-27.45-27.18-42.71-38.48-15.71-11.63-32.52-21.63-49.95-29.7-1.74-.81-3.48-1.59-5.23-2.35.12.01.24.02.36.04,6.26.64,12.51,1.34,18.72,2.09,7.77.94,15.5,1.97,23.19,3.08Zm-161.19-9.05v124.37c-32.05-.81-63.88-5.05-94.75-12.62-28.9-7.08-57.12-17.12-84.04-29.88,10.88-11.25,22.62-21.57,34.98-30.72,14.68-10.87,30.37-20.2,46.64-27.74,30.89-14.32,63.54-22.18,97.18-23.42Zm18.99,0c33.64,1.24,66.29,9.1,97.18,23.42,16.26,7.54,31.95,16.87,46.64,27.74,12.83,9.5,24.99,20.25,36.22,32-26.85,12.5-54.95,22.3-83.72,29.18-31.39,7.51-63.76,11.58-96.32,12.12v-124.45Zm-211.04,96.56c29.62,14.49,60.8,25.8,92.79,33.63,32.35,7.93,65.7,12.35,99.27,13.17v148.99h-265.18c1.04-37.53,8.28-73.93,21.57-108.34,6.92-17.92,15.47-35.19,25.44-51.35,7.83-12.71,16.59-24.8,26.11-36.09Zm192.06,214.77v137.29c-34.94.85-69.63,5.6-103.23,14.15-33.05,8.41-65.17,20.52-95.59,36.02-6.93-8.85-13.41-18.13-19.35-27.77-9.96-16.16-18.52-33.44-25.44-51.35-13.28-34.41-20.52-70.82-21.57-108.34h265.18Zm-97.18,268.92c-16.26-7.54-31.95-16.87-46.64-27.74-14.56-10.78-28.26-23.16-40.71-36.81-.59-.65-1.18-1.31-1.77-1.97,28.01-13.93,57.48-24.87,87.75-32.58,32.08-8.16,65.18-12.71,98.55-13.56v136.07c-33.64-1.24-66.29-9.1-97.18-23.42Zm116.16,23.42v-136.15c33.87.56,67.51,4.94,100.09,13.04,30.13,7.49,59.48,18.18,87.41,31.83-.99,1.12-1.98,2.22-2.98,3.32-12.45,13.64-26.15,26.03-40.71,36.81-14.68,10.87-30.37,20.2-46.64,27.74-30.89,14.32-63.54,22.18-97.18,23.42Zm0-311.33v-148.9c34.05-.54,67.9-4.79,100.73-12.64,31.85-7.62,62.92-18.67,92.47-32.87,9.08,10.9,17.45,22.53,24.97,34.72,9.96,16.16,18.52,33.44,25.44,51.35,13.28,34.41,20.52,70.82,21.57,108.34h-265.18Zm-564.23-70.4c13.26-25.46,32.9-49.99,58.37-72.9,50.04-45.02,121.28-82.68,206.26-109.08,22.24,18.06,46.16,34.06,71.28,47.69-9.06,11.04-17.43,22.78-24.99,35.04-10.57,17.15-19.65,35.48-26.99,54.48-14.13,36.6-21.8,75.3-22.85,115.18H157.21c1.41-23.86,8.15-47.5,20.08-70.4Zm-.75,158.33c-11.46-22.44-17.94-45.59-19.32-68.94h281.16c1.05,39.88,8.72,78.58,22.85,115.18,7.33,19,16.41,37.33,26.99,54.48,5.73,9.3,11.93,18.29,18.54,26.91-26.61,14.99-51.76,32.63-74.97,52.59-82.14-26.73-150.87-64.18-198.98-108.46-24.56-22.6-43.49-46.75-56.26-71.76Zm664.92,219.56c1.75-.77,3.49-1.55,5.23-2.35,17.43-8.08,34.23-18.07,49.95-29.7,15.55-11.51,30.16-24.72,43.44-39.27,2.14-2.35,4.25-4.74,6.32-7.16,23.67,12.89,46.2,27.96,67.21,44.96-.03,0-.07.02-.1.03-.23.07-.45.13-.68.2-1.1.33-2.2.65-3.3.97-.45.13-.9.26-1.35.39-.88.26-1.76.51-2.64.77-.51.15-1.03.29-1.54.44-.83.24-1.66.47-2.49.71-.53.15-1.06.3-1.59.45-.83.23-1.65.46-2.48.69-.53.15-1.05.29-1.58.44-.86.24-1.72.47-2.59.71-.49.13-.98.27-1.47.4-.98.27-1.97.53-2.96.79-.37.1-.74.2-1.1.29-1.36.36-2.73.72-4.1,1.07-.17.04-.34.09-.51.13-1.19.31-2.38.61-3.58.92-.45.11-.9.23-1.34.34-.92.23-1.85.46-2.77.69-.52.13-1.03.26-1.55.38-.86.21-1.73.42-2.59.64-.54.13-1.08.26-1.62.39-.86.21-1.72.41-2.57.62-.53.13-1.07.25-1.6.38-.89.21-1.78.42-2.67.63-.5.12-1,.23-1.5.35-1,.23-2.01.46-3.01.69-.39.09-.77.18-1.16.26-1.4.32-2.81.63-4.21.94-.1.02-.2.04-.3.07-1.3.29-2.6.57-3.9.85-.44.1-.89.19-1.33.28-.96.21-1.92.41-2.89.62-.52.11-1.05.22-1.57.33-.89.19-1.78.37-2.67.56-.55.11-1.1.23-1.65.34-.88.18-1.75.36-2.63.53-.55.11-1.1.22-1.65.33-.9.18-1.81.36-2.71.54-.52.1-1.04.2-1.56.31-1,.19-2,.39-3,.58-.42.08-.85.16-1.27.24-1.43.27-2.86.54-4.3.81-.04,0-.08.01-.12.02-1.38.26-2.77.51-4.16.76-.46.08-.92.16-1.38.25-.97.17-1.95.35-2.92.52-.55.1-1.09.19-1.64.29-.89.16-1.79.31-2.69.46-.58.1-1.16.2-1.74.3-.88.15-1.75.3-2.63.44-.58.1-1.16.19-1.74.29-.9.15-1.79.29-2.69.44-.56.09-1.11.18-1.67.27-.98.16-1.96.31-2.94.46-.47.07-.94.15-1.41.22-1.45.23-2.9.45-4.36.67-15.81,2.38-31.81,4.4-47.96,6.05Zm446.29-219.99c-12.63,24.88-31.35,48.91-55.65,71.42-47.57,44.08-115.59,81.46-196.94,108.28-23.72-20.27-49.44-38.13-76.65-53.21,6.17-8.14,11.97-16.61,17.36-25.35,10.57-17.15,19.65-35.48,26.99-54.48,14.13-36.6,21.8-75.3,22.85-115.18h281.16c-1.37,23.2-7.78,46.21-19.11,68.51Z"/>
  </g>
</svg>